<svg xmlns="http://www.w3.org/2000/svg" xmlns:xlink="http://www.w3.org/1999/xlink" width="500" zoomAndPan="magnify" viewBox="0 0 375 374.999991" height="500" preserveAspectRatio="xMidYMid meet" version="1.0"><defs><g/><clipPath id="729bebadb5"><path d="M 105.929688 180.902344 L 282.746094 180.902344 L 282.746094 209.621094 L 105.929688 209.621094 Z M 105.929688 180.902344 " clip-rule="nonzero"/></clipPath><clipPath id="61ae8ecd93"><path d="M 282.679688 195.261719 L 265 180.902344 L 265 189.742188 L 105.929688 189.742188 L 105.929688 200.785156 L 265 200.785156 L 265 209.621094 Z M 282.679688 195.261719 " clip-rule="nonzero"/></clipPath><clipPath id="b79df21be2"><path d="M 0.929688 0.902344 L 177.71875 0.902344 L 177.71875 29.621094 L 0.929688 29.621094 Z M 0.929688 0.902344 " clip-rule="nonzero"/></clipPath><clipPath id="add681d1a1"><path d="M 177.679688 15.261719 L 160 0.902344 L 160 9.742188 L 0.929688 9.742188 L 0.929688 20.785156 L 160 20.785156 L 160 29.621094 Z M 177.679688 15.261719 " clip-rule="nonzero"/></clipPath><clipPath id="1348beb8be"><rect x="0" width="178" y="0" height="30"/></clipPath><clipPath id="24e7f21d8c"><path d="M 146 183 L 162 183 L 162 199 L 146 199 Z M 146 183 " clip-rule="nonzero"/></clipPath><clipPath id="c6e64941ac"><path d="M 150.652344 181.742188 L 165.058594 185.921875 L 161.292969 198.886719 L 146.886719 194.707031 Z M 150.652344 181.742188 " clip-rule="nonzero"/></clipPath><clipPath id="380c9636eb"><path d="M 150.652344 181.742188 L 165.058594 185.921875 L 161.292969 198.886719 L 146.886719 194.707031 Z M 150.652344 181.742188 " clip-rule="nonzero"/></clipPath><clipPath id="1d1e9cf6e8"><path d="M 145 190 L 160 190 L 160 206 L 145 206 Z M 145 190 " clip-rule="nonzero"/></clipPath><clipPath id="f647e9a6d3"><path d="M 155.398438 207.589844 L 141.25 202.617188 L 145.726562 189.878906 L 159.875 194.855469 Z M 155.398438 207.589844 " clip-rule="nonzero"/></clipPath><clipPath id="13a81e0699"><path d="M 155.398438 207.589844 L 141.25 202.617188 L 145.726562 189.878906 L 159.875 194.855469 Z M 155.398438 207.589844 " clip-rule="nonzero"/></clipPath></defs><g fill="#ffffff" fill-opacity="1"><g transform="translate(100.301864, 253.542209)"><g><path d="M 40.734375 -28.265625 C 40.734375 -24.359375 41.453125 -20.664062 42.890625 -17.1875 C 44.335938 -13.707031 46.332031 -10.691406 48.875 -8.140625 C 51.425781 -5.597656 54.394531 -3.601562 57.78125 -2.15625 C 61.175781 -0.71875 64.828125 0 68.734375 0 L 6.359375 0 C 10.097656 -0.507812 13.707031 -1.695312 17.1875 -3.5625 C 20.664062 -5.425781 23.929688 -7.757812 26.984375 -10.5625 C 30.035156 -13.363281 32.75 -16.460938 35.125 -19.859375 C 37.507812 -23.253906 39.378906 -26.734375 40.734375 -30.296875 Z M 89.609375 0 C 93.171875 0 96.222656 -1.484375 98.765625 -4.453125 C 101.316406 -7.421875 102.59375 -10.773438 102.59375 -14.515625 C 102.59375 -15.191406 102.59375 -15.867188 102.59375 -16.546875 C 102.59375 -17.222656 102.421875 -17.898438 102.078125 -18.578125 L 94.703125 -39.96875 L 94.1875 -41.5 L 76.125 -93.6875 C 74.9375 -96.570312 72.8125 -98.015625 69.75 -98.015625 C 66.863281 -98.015625 64.828125 -96.570312 63.640625 -93.6875 L 94.1875 -178.203125 L 122.453125 -97 C 123.640625 -93.601562 124.992188 -89.570312 126.515625 -84.90625 C 128.046875 -80.238281 129.40625 -76.207031 130.59375 -72.8125 L 151.46875 -13.234375 C 152.65625 -9.835938 154.734375 -6.78125 157.703125 -4.0625 C 160.679688 -1.351562 164.117188 0 168.015625 0 Z M 89.609375 0 "/></g></g></g><g clip-path="url(#729bebadb5)"><g clip-path="url(#61ae8ecd93)"><g transform="matrix(1, 0, 0, 1, 105, 180)"><g clip-path="url(#1348beb8be)"><g clip-path="url(#b79df21be2)"><g clip-path="url(#add681d1a1)"><path fill="#ff3b30" d="M 0.929688 0.902344 L 177.632812 0.902344 L 177.632812 29.621094 L 0.929688 29.621094 Z M 0.929688 0.902344 " fill-opacity="1" fill-rule="nonzero"/></g></g></g></g></g></g><g clip-path="url(#24e7f21d8c)"><g clip-path="url(#c6e64941ac)"><g clip-path="url(#380c9636eb)"><path fill="#ff3b30" d="M 146.988281 194.355469 L 157.933594 183.859375 L 161.554688 198.582031 Z M 146.988281 194.355469 " fill-opacity="1" fill-rule="nonzero"/></g></g></g><g clip-path="url(#1d1e9cf6e8)"><g clip-path="url(#f647e9a6d3)"><g clip-path="url(#13a81e0699)"><path fill="#ff3b30" d="M 159.753906 195.199219 L 148.246094 205.074219 L 145.449219 190.171875 Z M 159.753906 195.199219 " fill-opacity="1" fill-rule="nonzero"/></g></g></g></svg>